<svg width="20" height="20" viewBox="0 0 20 20" fill="none" xmlns="http://www.w3.org/2000/svg">
<g clip-path="url(#clip0_419_36855)">
<g clip-path="url(#clip1_419_36855)">
<path d="M7.16622 2.02761C7.42395 1.33111 8.40906 1.33111 8.66679 2.0276L9.81453 5.12933C9.89555 5.3483 10.0682 5.52095 10.2872 5.60198L13.3889 6.74972C14.0854 7.00744 14.0854 7.99256 13.3889 8.25028L10.2872 9.39802C10.0682 9.47905 9.89555 9.6517 9.81453 9.87067L8.66679 12.9724C8.40906 13.6689 7.42395 13.6689 7.16622 12.9724L6.01848 9.87067C5.93745 9.6517 5.76481 9.47905 5.54583 9.39802L2.44411 8.25028C1.74762 7.99256 1.74761 7.00744 2.44411 6.74972L5.54583 5.60198C5.76481 5.52095 5.93745 5.3483 6.01848 5.12933L7.16622 2.02761Z" fill="white"/>
<path d="M13.8327 11.1942C14.0905 10.4977 15.0756 10.4977 15.3333 11.1942L15.8058 12.4712C15.8868 12.6902 16.0595 12.8628 16.2785 12.9438L17.5554 13.4163C18.2519 13.6741 18.2519 14.6592 17.5554 14.9169L16.2785 15.3894C16.0595 15.4704 15.8868 15.6431 15.8058 15.8621L15.3333 17.139C15.0756 17.8355 14.0905 17.8355 13.8327 17.139L13.3602 15.8621C13.2792 15.6431 13.1065 15.4704 12.8876 15.3894L11.6106 14.9169C10.9141 14.6592 10.9141 13.6741 11.6106 13.4163L12.8876 12.9438C13.1065 12.8628 13.2792 12.6902 13.3602 12.4712L13.8327 11.1942Z" fill="white"/>
</g>
</g>
<defs>
<clipPath id="clip0_419_36855">
<rect width="20" height="20" fill="white"/>
</clipPath>
<clipPath id="clip1_419_36855">
<rect width="20" height="20" fill="white"/>
</clipPath>
</defs>
</svg>
